<svg width="228" height="228" xmlns="http://www.w3.org/2000/svg" xmlns:svg="http://www.w3.org/2000/svg" class="icon">
 <!---->
 <defs>
  <!---->
 </defs>
 <!---->
 <defs>
  <linearGradient y2="0%" x2="100%" y1="0%" x1="0%" id="ec8a654b-ddd7-4859-92ec-a040b85517b2" gradientTransform="rotate(25)">
   <stop stop-color="#A21F38" offset="0%"/>
   <stop stop-color="#D8806B" offset="100%"/>
  </linearGradient>
 </defs>
 <!---->
 <g>
  <title>Layer 1</title>
  <g transform="matrix(2.2047180279515084,0,0,2.2047180279515084,39.76409516930084,66.83253293734433) " fill="url(#ec8a654b-ddd7-4859-92ec-a040b85517b2)" id="64847141-b5db-44ca-bba3-0535f33473a9">
   <path id="svg_2" d="m2.869381,30.84839l0,-8.201l-8.575,0c-3.319,0 -6.021,-2.874 -6.021,-6.406l0,-18.492c0,-3.533 2.701,-6.408 6.021,-6.408l38.345,0c3.319,0 6.019,2.875 6.019,6.408l0,18.492c0,3.532 -2.7,6.406 -6.019,6.406l0,4.496c5.797,0 10.514,-4.891 10.514,-10.902l0,-18.492c0,-6.011 -4.716,-10.903 -10.514,-10.903l-38.345,0c-5.799,0 -10.516,4.892 -10.516,10.903l0,18.492c0,6.011 4.717,10.902 10.516,10.902l4.08,0l0,7.968c0,1.223 0.789,2.332 1.963,2.764c0.334,0.123 0.677,0.184 1.014,0.184c0.821,0 1.609,-0.354 2.165,-1.01l8.369,-9.905l8.353,0l0,-4.496l-10.439,0l-6.93,8.2z"/>
   <path id="svg_3" d="m73.048381,11.07939l-25.96,0l0,4.496l25.96,0c3.319,0 6.021,2.875 6.021,6.408l0,18.489c0,3.533 -2.701,6.408 -6.021,6.408l-8.574,0l0,8.205l-6.931,-8.203l-22.841,0c-3.318,0 -6.019,-2.875 -6.019,-6.408l0,-18.491c0,-3.533 2.701,-6.408 6.019,-6.408l0,-4.496c-5.797,0 -10.515,4.892 -10.515,10.903l0,18.491c0,6.014 4.717,10.904 10.515,10.904l20.754,0l8.372,9.91a2.825,2.825 0 0 0 2.161,1.004c0.337,0 0.68,-0.059 1.014,-0.182c1.176,-0.432 1.967,-1.543 1.967,-2.768l0,-7.965l4.078,0c5.799,0 10.516,-4.891 10.516,-10.904l0,-18.489c0,-6.012 -4.717,-10.904 -10.516,-10.904zm-62.845,-16.796l-7.952,20.951l4.665,0l1.644,-4.665l7.834,0l1.584,4.665l4.782,0l-7.834,-20.951l-4.723,0zm-0.439,12.853l2.729,-7.688l0.058,0l2.641,7.688l-5.428,0z"/>
   <path id="svg_4" d="m43.791381,35.96039c0,2.297 1.468,3.787 3.862,3.787c2.876,-0.061 5.721,-1.887 6.647,-2.711c0.926,-0.826 3.42,-3.693 4.521,-5.963c1.393,0.658 2.053,1.76 2.053,2.98c0,2.639 -2.542,4.17 -6.599,4.635l1.968,2.725c6.354,-0.832 8.516,-3.5 8.516,-7.408c0,-3.301 -2.077,-5.305 -4.74,-6.183c0.049,-0.242 0.138,-0.495 0.188,-0.74l-3.611,-0.643c-0.024,0.365 -0.097,0.432 -0.168,0.798a14.526,14.526 0 0 0 -3.202,0.219c0,-0.66 0.024,-2.421 0.049,-3.055c3.006,-0.122 5.962,-0.365 8.699,-0.781l-0.318,-3.566c-2.81,0.562 -5.523,0.856 -8.186,1.003c0.072,-0.71 0.172,-2.717 0.172,-2.717l-3.813,-0.291c-0.05,0.978 -0.072,2.127 -0.121,3.128a154.59,154.59 0 0 1 -4.742,0l0.171,3.446l0.414,0c1.003,0 2.641,-0.051 4.109,-0.099c0,0.952 0.023,3.005 0.048,3.934c-3.448,1.439 -5.917,4.105 -5.917,7.502zm11.486,-5.524c-0.514,1.025 -1.124,1.957 -1.808,2.736c-0.1,-0.807 -0.148,-1.637 -0.196,-2.516c0.268,-0.048 1.343,-0.22 2.004,-0.22zm-5.377,1.418c0.123,1.369 0.27,2.688 0.489,3.885c-0.634,0.318 -1.244,0.514 -1.809,0.539c-1.223,0.049 -1.223,-0.732 -1.223,-1.076c0.001,-1.297 1.003,-2.492 2.543,-3.348z"/>
  </g>
 </g>
</svg>