<svg data-v-423bf9ae="" xmlns="http://www.w3.org/2000/svg" viewBox="0 0 521 90" class="iconLeft"><!----><!----><!----><g data-v-423bf9ae="" id="07b7bcb5-9a3c-48f3-9e70-d9ad960eadbe" fill="white" transform="matrix(5.714285714285714,0,0,5.714285714285714,136.57977435418536,13.800000876188278)"><path d="M0.43 8.40C0.56 9.83 1.67 10.71 3.44 10.71C5.00 10.71 6.41 10.04 6.41 8.43C6.41 7.03 5.45 6.52 4.58 6.30L2.72 5.84C2.31 5.74 1.95 5.52 1.95 5.11C1.95 4.56 2.46 4.26 3.35 4.26C4.13 4.26 4.66 4.59 4.77 5.33L6.17 5.11C6.09 3.92 5.12 3.01 3.39 3.01C1.89 3.01 0.55 3.65 0.55 5.22C0.55 6.43 1.40 6.96 2.35 7.20L4.12 7.64C4.70 7.80 4.96 8.05 4.96 8.53C4.96 9.25 4.14 9.46 3.49 9.46C2.42 9.46 1.95 8.90 1.85 8.18L0.43 8.40ZM8.83 6.86C8.83 5.10 9.65 4.31 10.67 4.31C11.45 4.31 12.07 4.75 12.29 5.81L13.80 5.52C13.41 3.85 12.24 3.01 10.67 3.01C8.69 3.01 7.28 4.35 7.28 6.86C7.28 9.37 8.69 10.71 10.67 10.71C12.24 10.71 13.41 9.88 13.80 8.22L12.29 7.92C12.07 8.97 11.45 9.42 10.67 9.42C9.63 9.42 8.83 8.62 8.83 6.86ZM19.50 9.66C19.53 9.97 19.59 10.30 19.80 10.50L21.36 10.50C21.11 10.23 20.97 9.76 20.97 9.02L20.97 5.92C20.97 3.95 19.95 3.01 18.03 3.01C16.65 3.01 15.30 3.53 14.94 5.21L16.34 5.59C16.55 4.79 17.04 4.27 17.92 4.27C18.86 4.27 19.42 4.75 19.42 5.64L19.42 5.88C19.05 6.05 18.34 6.17 17.57 6.24C15.90 6.43 14.71 7.04 14.71 8.61C14.71 10.04 15.85 10.71 17.18 10.71C18.05 10.71 18.82 10.43 19.50 9.66ZM19.42 8.41C19.08 8.90 18.31 9.51 17.47 9.51C16.83 9.51 16.31 9.24 16.31 8.53C16.30 7.67 17.04 7.48 17.77 7.35C18.47 7.24 19.11 7.08 19.42 6.96ZM24.33 10.50L24.33 6.54C24.33 5.10 25.06 4.33 26.05 4.33C27.05 4.33 27.43 4.98 27.43 6.09L27.43 10.50L28.98 10.50L28.98 6.03C28.98 4.30 28.43 3.01 26.42 3.01C25.47 3.01 24.74 3.37 24.21 4.27L24.21 3.22L22.78 3.22L22.78 10.50ZM32.24 10.50L32.24 0.21L30.69 0.77L30.69 10.50ZM38.36 9.66C38.39 9.97 38.44 10.30 38.65 10.50L40.22 10.50C39.97 10.23 39.83 9.76 39.83 9.02L39.83 5.92C39.83 3.95 38.81 3.01 36.89 3.01C35.50 3.01 34.16 3.53 33.80 5.21L35.20 5.59C35.41 4.79 35.90 4.27 36.78 4.27C37.72 4.27 38.28 4.75 38.28 5.64L38.28 5.88C37.91 6.05 37.20 6.17 36.43 6.24C34.76 6.43 33.57 7.04 33.57 8.61C33.57 10.04 34.71 10.71 36.04 10.71C36.90 10.71 37.67 10.43 38.36 9.66ZM38.28 8.41C37.94 8.90 37.17 9.51 36.33 9.51C35.69 9.51 35.17 9.24 35.17 8.53C35.15 7.67 35.90 7.48 36.62 7.35C37.32 7.24 37.97 7.08 38.28 6.96ZM44.88 9.20C44.66 9.27 44.45 9.28 44.31 9.28C43.65 9.28 43.65 8.83 43.65 8.20L43.65 4.44L44.94 4.44L44.94 3.22L43.65 3.22L43.65 0.85L42.10 1.46L42.10 3.22L41.06 3.22L41.06 4.44L42.10 4.44L42.10 8.37C42.10 9.80 42.42 10.64 43.95 10.64C44.21 10.64 44.74 10.57 45.02 10.47ZM52.67 7.28C52.68 7.21 52.68 6.85 52.68 6.66C52.68 4.44 51.38 3.01 49.31 3.01C47.35 3.01 45.88 4.35 45.88 6.86C45.88 9.37 47.35 10.71 49.31 10.71C50.96 10.71 52.12 9.93 52.58 8.37L51.11 8.06C50.90 8.93 50.20 9.42 49.41 9.42C48.40 9.42 47.53 8.76 47.43 7.28ZM49.29 4.31C50.34 4.31 51.02 5.05 51.07 6.13L47.47 6.13C47.66 4.89 48.48 4.31 49.29 4.31ZM55.58 10.50L55.58 8.86L54.01 8.86L54.01 10.50ZM58.87 2.00L58.87 0.42L57.32 0.42L57.32 2.00ZM58.87 10.50L58.87 3.22L57.32 3.22L57.32 10.50ZM60.17 6.86C60.17 9.37 61.66 10.71 63.66 10.71C65.65 10.71 67.13 9.37 67.13 6.86C67.13 4.35 65.65 3.01 63.66 3.01C61.66 3.01 60.17 4.35 60.17 6.86ZM61.73 6.86C61.73 5.10 62.59 4.31 63.66 4.31C64.71 4.31 65.58 5.10 65.58 6.86C65.58 8.62 64.71 9.42 63.66 9.42C62.59 9.42 61.73 8.62 61.73 6.86Z"></path></g><!----><g data-v-423bf9ae="" id="2d3b2bb5-640b-47e9-93fe-fd6e107a3861" transform="matrix(1.1929221216160706,0,0,1.1929221216160706,0.46089206238718816,0)" stroke="none" fill="white"><path d="M19.198 44.002v-8.201h-8.575c-3.319 0-6.021-2.874-6.021-6.406V10.903c0-3.533 2.701-6.408 6.021-6.408h38.345c3.319 0 6.019 2.875 6.019 6.408v18.492c0 3.532-2.7 6.406-6.019 6.406v4.496c5.797 0 10.514-4.891 10.514-10.902V10.903C59.482 4.892 54.766 0 48.968 0H10.623C4.824 0 .107 4.892.107 10.903v18.492c0 6.011 4.717 10.902 10.516 10.902h4.08v7.968c0 1.223.789 2.332 1.963 2.764.334.123.677.184 1.014.184.821 0 1.609-.354 2.165-1.01l8.369-9.905h8.353v-4.496H26.128l-6.93 8.2z"></path><path d="M89.377 24.233h-25.96v4.496h25.96c3.319 0 6.021 2.875 6.021 6.408v18.489c0 3.533-2.701 6.408-6.021 6.408h-8.574v8.205l-6.931-8.203H51.031c-3.318 0-6.019-2.875-6.019-6.408V35.137c0-3.533 2.701-6.408 6.019-6.408v-4.496c-5.797 0-10.515 4.892-10.515 10.903v18.491c0 6.014 4.717 10.904 10.515 10.904h20.754l8.372 9.91a2.825 2.825 0 0 0 2.161 1.004c.337 0 .68-.059 1.014-.182 1.176-.432 1.967-1.543 1.967-2.768V64.53h4.078c5.799 0 10.516-4.891 10.516-10.904V35.137c0-6.012-4.717-10.904-10.516-10.904zM26.532 7.437L18.58 28.388h4.665l1.644-4.665h7.834l1.584 4.665h4.782L31.255 7.437h-4.723zm-.439 12.853l2.729-7.688h.058l2.641 7.688h-5.428z"></path><path d="M60.12 49.114c0 2.297 1.468 3.787 3.862 3.787 2.876-.061 5.721-1.887 6.647-2.711.926-.826 3.42-3.693 4.521-5.963 1.393.658 2.053 1.76 2.053 2.98 0 2.639-2.542 4.17-6.599 4.635l1.968 2.725c6.354-.832 8.516-3.5 8.516-7.408 0-3.301-2.077-5.305-4.74-6.183.049-.242.138-.495.188-.74l-3.611-.643c-.024.365-.097.432-.168.798a14.526 14.526 0 0 0-3.202.219c0-.66.024-2.421.049-3.055 3.006-.122 5.962-.365 8.699-.781l-.318-3.566c-2.81.562-5.523.856-8.186 1.003.072-.71.172-2.717.172-2.717l-3.813-.291c-.05.978-.072 2.127-.121 3.128a154.59 154.59 0 0 1-4.742 0l.171 3.446h.414c1.003 0 2.641-.051 4.109-.099 0 .952.023 3.005.048 3.934-3.448 1.439-5.917 4.105-5.917 7.502zm11.486-5.524c-.514 1.025-1.124 1.957-1.808 2.736-.1-.807-.148-1.637-.196-2.516.268-.048 1.343-.22 2.004-.22zm-5.377 1.418c.123 1.369.27 2.688.489 3.885-.634.318-1.244.514-1.809.539-1.223.049-1.223-.732-1.223-1.076.001-1.297 1.003-2.492 2.543-3.348z"></path></g><!----></svg>