<svg data-v-423bf9ae="" xmlns="http://www.w3.org/2000/svg" viewBox="0 0 79.35795369393388 60" class="icon"><!----><!----><!----><!----><g data-v-423bf9ae="" id="58957b80-0154-429c-886c-b827dee92bb0" transform="matrix(0.7952814144107138,0,0,0.7952814144107138,-0.08509529646812553,0)" stroke="none" fill="white"><path d="M19.198 44.002v-8.201h-8.575c-3.319 0-6.021-2.874-6.021-6.406V10.903c0-3.533 2.701-6.408 6.021-6.408h38.345c3.319 0 6.019 2.875 6.019 6.408v18.492c0 3.532-2.7 6.406-6.019 6.406v4.496c5.797 0 10.514-4.891 10.514-10.902V10.903C59.482 4.892 54.766 0 48.968 0H10.623C4.824 0 .107 4.892.107 10.903v18.492c0 6.011 4.717 10.902 10.516 10.902h4.08v7.968c0 1.223.789 2.332 1.963 2.764.334.123.677.184 1.014.184.821 0 1.609-.354 2.165-1.01l8.369-9.905h8.353v-4.496H26.128l-6.93 8.2z"></path><path d="M89.377 24.233h-25.96v4.496h25.96c3.319 0 6.021 2.875 6.021 6.408v18.489c0 3.533-2.701 6.408-6.021 6.408h-8.574v8.205l-6.931-8.203H51.031c-3.318 0-6.019-2.875-6.019-6.408V35.137c0-3.533 2.701-6.408 6.019-6.408v-4.496c-5.797 0-10.515 4.892-10.515 10.903v18.491c0 6.014 4.717 10.904 10.515 10.904h20.754l8.372 9.91a2.825 2.825 0 0 0 2.161 1.004c.337 0 .68-.059 1.014-.182 1.176-.432 1.967-1.543 1.967-2.768V64.53h4.078c5.799 0 10.516-4.891 10.516-10.904V35.137c0-6.012-4.717-10.904-10.516-10.904zM26.532 7.437L18.58 28.388h4.665l1.644-4.665h7.834l1.584 4.665h4.782L31.255 7.437h-4.723zm-.439 12.853l2.729-7.688h.058l2.641 7.688h-5.428z"></path><path d="M60.12 49.114c0 2.297 1.468 3.787 3.862 3.787 2.876-.061 5.721-1.887 6.647-2.711.926-.826 3.42-3.693 4.521-5.963 1.393.658 2.053 1.76 2.053 2.98 0 2.639-2.542 4.17-6.599 4.635l1.968 2.725c6.354-.832 8.516-3.5 8.516-7.408 0-3.301-2.077-5.305-4.74-6.183.049-.242.138-.495.188-.74l-3.611-.643c-.024.365-.097.432-.168.798a14.526 14.526 0 0 0-3.202.219c0-.66.024-2.421.049-3.055 3.006-.122 5.962-.365 8.699-.781l-.318-3.566c-2.81.562-5.523.856-8.186 1.003.072-.71.172-2.717.172-2.717l-3.813-.291c-.05.978-.072 2.127-.121 3.128a154.59 154.59 0 0 1-4.742 0l.171 3.446h.414c1.003 0 2.641-.051 4.109-.099 0 .952.023 3.005.048 3.934-3.448 1.439-5.917 4.105-5.917 7.502zm11.486-5.524c-.514 1.025-1.124 1.957-1.808 2.736-.1-.807-.148-1.637-.196-2.516.268-.048 1.343-.22 2.004-.22zm-5.377 1.418c.123 1.369.27 2.688.489 3.885-.634.318-1.244.514-1.809.539-1.223.049-1.223-.732-1.223-1.076.001-1.297 1.003-2.492 2.543-3.348z"></path></g><!----></svg>