<svg width="256" height="64" xmlns="http://www.w3.org/2000/svg" xmlns:svg="http://www.w3.org/2000/svg" class="iconLeft">
 <!---->
 <defs>
  <!---->
 </defs>
 <defs>
  <!---->
 </defs>
 <defs>
  <linearGradient y2="0%" x2="100%" y1="0%" x1="0%" id="d89e716c-07bc-45d3-ba9a-fdc480ab0ebc" gradientTransform="rotate(25)">
   <stop stop-color="#A21F38" offset="0%"/>
   <stop stop-color="#D8806B" offset="100%"/>
  </linearGradient>
 </defs>
 <!---->
 <g>
  <title>Layer 1</title>
  <rect x="-3.753194" y="-3.65598" id="svg_1" class="logo-background-square" height="68.249999" width="271.250006" fill="#F9EFED"/>
  <g transform="matrix(2.364864021344597,0,0,2.364864021344597,101.24668544721463,137.08784242372454) " fill="#391117" id="baa82700-85e6-4491-8fa9-41662335e859">
   <path id="svg_2" d="m-9.587782,-41.906692c0.13,1.43 1.24,2.31 3.01,2.31c1.56,0 2.97,-0.67 2.97,-2.28c0,-1.4 -0.96,-1.91 -1.83,-2.13l-1.86,-0.46c-0.41,-0.1 -0.77,-0.32 -0.77,-0.73c0,-0.55 0.51,-0.85 1.4,-0.85c0.78,0 1.31,0.33 1.42,1.07l1.4,-0.22c-0.08,-1.19 -1.05,-2.1 -2.78,-2.1c-1.5,0 -2.84,0.64 -2.84,2.21c0,1.21 0.85,1.74 1.8,1.98l1.77,0.44c0.58,0.16 0.84,0.41 0.84,0.89c0,0.72 -0.82,0.93 -1.47,0.93c-1.07,0 -1.54,-0.56 -1.64,-1.28l-1.42,0.22zm8.4,-1.54c0,-1.76 0.82,-2.55 1.84,-2.55c0.78,0 1.4,0.44 1.62,1.5l1.51,-0.29c-0.39,-1.67 -1.56,-2.51 -3.13,-2.51c-1.98,0 -3.39,1.34 -3.39,3.85c0,2.51 1.41,3.85 3.39,3.85c1.57,0 2.74,-0.83 3.13,-2.49l-1.51,-0.3c-0.22,1.05 -0.84,1.5 -1.62,1.5c-1.04,0 -1.84,-0.8 -1.84,-2.56zm10.67,2.8c0.03,0.31 0.09,0.64 0.3,0.84l1.56,0c-0.25,-0.27 -0.39,-0.74 -0.39,-1.48l0,-3.1c0,-1.97 -1.02,-2.91 -2.94,-2.91c-1.38,0 -2.73,0.52 -3.09,2.2l1.4,0.38c0.21,-0.8 0.7,-1.32 1.58,-1.32c0.94,0 1.5,0.48 1.5,1.37l0,0.24c-0.37,0.17 -1.08,0.29 -1.85,0.36c-1.67,0.19 -2.86,0.8 -2.86,2.37c0,1.43 1.14,2.1 2.47,2.1c0.87,0 1.64,-0.28 2.32,-1.05zm-0.08,-1.25c-0.34,0.49 -1.11,1.1 -1.95,1.1c-0.64,0 -1.16,-0.27 -1.16,-0.98c-0.01,-0.86 0.73,-1.05 1.46,-1.18c0.7,-0.11 1.34,-0.27 1.65,-0.39l0,1.45zm4.91,2.09l0,-3.96c0,-1.44 0.73,-2.21 1.72,-2.21c1,0 1.38,0.65 1.38,1.76l0,4.41l1.55,0l0,-4.47c0,-1.73 -0.55,-3.02 -2.56,-3.02c-0.95,0 -1.68,0.36 -2.21,1.26l0,-1.05l-1.43,0l0,7.28l1.55,0zm7.91,0l0,-10.29l-1.55,0.56l0,9.73l1.55,0zm6.12,-0.84c0.03,0.31 0.08,0.64 0.29,0.84l1.57,0c-0.25,-0.27 -0.39,-0.74 -0.39,-1.48l0,-3.1c0,-1.97 -1.02,-2.91 -2.94,-2.91c-1.39,0 -2.73,0.52 -3.09,2.2l1.4,0.38c0.21,-0.8 0.7,-1.32 1.58,-1.32c0.94,0 1.5,0.48 1.5,1.37l0,0.24c-0.37,0.17 -1.08,0.29 -1.85,0.36c-1.67,0.19 -2.86,0.8 -2.86,2.37c0,1.43 1.14,2.1 2.47,2.1c0.86,0 1.63,-0.28 2.32,-1.05zm-0.08,-1.25c-0.34,0.49 -1.11,1.1 -1.95,1.1c-0.64,0 -1.16,-0.27 -1.16,-0.98c-0.02,-0.86 0.73,-1.05 1.45,-1.18c0.7,-0.11 1.35,-0.27 1.66,-0.39l0,1.45zm6.6,0.79c-0.22,0.07 -0.43,0.08 -0.57,0.08c-0.66,0 -0.66,-0.45 -0.66,-1.08l0,-3.76l1.29,0l0,-1.22l-1.29,0l0,-2.37l-1.55,0.61l0,1.76l-1.04,0l0,1.22l1.04,0l0,3.93c0,1.43 0.32,2.27 1.85,2.27c0.26,0 0.79,-0.07 1.07,-0.17l-0.14,-1.27zm7.79,-1.92c0.01,-0.07 0.01,-0.43 0.01,-0.62c0,-2.22 -1.3,-3.65 -3.37,-3.65c-1.96,0 -3.43,1.34 -3.43,3.85c0,2.51 1.47,3.85 3.43,3.85c1.65,0 2.81,-0.78 3.27,-2.34l-1.47,-0.31c-0.21,0.87 -0.91,1.36 -1.7,1.36c-1.01,0 -1.88,-0.66 -1.98,-2.14l5.24,0zm-3.38,-2.97c1.05,0 1.73,0.74 1.78,1.82l-3.6,0c0.19,-1.24 1.01,-1.82 1.82,-1.82zm6.29,6.19l0,-1.64l-1.57,0l0,1.64l1.57,0zm3.29,-8.5l0,-1.58l-1.55,0l0,1.58l1.55,0zm0,8.5l0,-7.28l-1.55,0l0,7.28l1.55,0zm1.3,-3.64c0,2.51 1.49,3.85 3.49,3.85c1.99,0 3.47,-1.34 3.47,-3.85c0,-2.51 -1.48,-3.85 -3.47,-3.85c-2,0 -3.49,1.34 -3.49,3.85zm1.56,0c0,-1.76 0.86,-2.55 1.93,-2.55c1.05,0 1.92,0.79 1.92,2.55c0,1.76 -0.87,2.56 -1.92,2.56c-1.07,0 -1.93,-0.8 -1.93,-2.56z"/>
  </g>
  <g transform="matrix(0.4936922559932841,0,0,0.4936922559932841,39.947174928226175,131.3766958319113) " fill="url(#d89e716c-07bc-45d3-ba9a-fdc480ab0ebc)" id="20bd2573-f85d-421e-bb1a-fe630a027939">
   <path id="svg_3" d="m-21.952517,-190.138762l0,-8.201l-8.575,0c-3.319,0 -6.021,-2.874 -6.021,-6.406l0,-18.492c0,-3.533 2.701,-6.408 6.021,-6.408l38.345,0c3.319,0 6.019,2.875 6.019,6.408l0,18.492c0,3.532 -2.7,6.406 -6.019,6.406l0,4.496c5.797,0 10.514,-4.891 10.514,-10.902l0,-18.492c0,-6.011 -4.716,-10.903 -10.514,-10.903l-38.345,0c-5.799,0 -10.516,4.892 -10.516,10.903l0,18.492c0,6.011 4.717,10.902 10.516,10.902l4.08,0l0,7.968c0,1.223 0.789,2.332 1.963,2.764c0.334,0.123 0.677,0.184 1.014,0.184c0.821,0 1.609,-0.354 2.165,-1.01l8.369,-9.905l8.353,0l0,-4.496l-10.439,0l-6.93,8.2z"/>
   <path id="svg_4" d="m48.226483,-209.907762l-25.96,0l0,4.496l25.96,0c3.319,0 6.021,2.875 6.021,6.408l0,18.489c0,3.533 -2.701,6.408 -6.021,6.408l-8.574,0l0,8.205l-6.931,-8.203l-22.841,0c-3.318,0 -6.019,-2.875 -6.019,-6.408l0,-18.491c0,-3.533 2.701,-6.408 6.019,-6.408l0,-4.496c-5.797,0 -10.515,4.892 -10.515,10.903l0,18.491c0,6.014 4.717,10.904 10.515,10.904l20.754,0l8.372,9.91a2.825,2.825 0 0 0 2.161,1.004c0.337,0 0.68,-0.059 1.014,-0.182c1.176,-0.432 1.967,-1.543 1.967,-2.768l0,-7.965l4.078,0c5.799,0 10.516,-4.891 10.516,-10.904l0,-18.489c0,-6.012 -4.717,-10.904 -10.516,-10.904zm-62.845,-16.796l-7.952,20.951l4.665,0l1.644,-4.665l7.834,0l1.584,4.665l4.782,0l-7.834,-20.951l-4.723,0zm-0.439,12.853l2.729,-7.688l0.058,0l2.641,7.688l-5.428,0z"/>
   <path id="svg_5" d="m18.969483,-185.026762c0,2.297 1.468,3.787 3.862,3.787c2.876,-0.061 5.721,-1.887 6.647,-2.711c0.926,-0.826 3.42,-3.693 4.521,-5.963c1.393,0.658 2.053,1.76 2.053,2.98c0,2.639 -2.542,4.17 -6.599,4.635l1.968,2.725c6.354,-0.832 8.516,-3.5 8.516,-7.408c0,-3.301 -2.077,-5.305 -4.74,-6.183c0.049,-0.242 0.138,-0.495 0.188,-0.74l-3.611,-0.643c-0.024,0.365 -0.097,0.432 -0.168,0.798a14.526,14.526 0 0 0 -3.202,0.219c0,-0.66 0.024,-2.421 0.049,-3.055c3.006,-0.122 5.962,-0.365 8.699,-0.781l-0.318,-3.566c-2.81,0.562 -5.523,0.856 -8.186,1.003c0.072,-0.71 0.172,-2.717 0.172,-2.717l-3.813,-0.291c-0.05,0.978 -0.072,2.127 -0.121,3.128a154.59,154.59 0 0 1 -4.742,0l0.171,3.446l0.414,0c1.003,0 2.641,-0.051 4.109,-0.099c0,0.952 0.023,3.005 0.048,3.934c-3.448,1.439 -5.917,4.105 -5.917,7.502zm11.486,-5.524c-0.514,1.025 -1.124,1.957 -1.808,2.736c-0.1,-0.807 -0.148,-1.637 -0.196,-2.516c0.268,-0.048 1.343,-0.22 2.004,-0.22zm-5.377,1.418c0.123,1.369 0.27,2.688 0.489,3.885c-0.634,0.318 -1.244,0.514 -1.809,0.539c-1.223,0.049 -1.223,-0.732 -1.223,-1.076c0.001,-1.297 1.003,-2.492 2.543,-3.348z"/>
  </g>
 </g>
 <g>
  <title>Layer 2</title>
 </g>
</svg>